<svg xmlns="http://www.w3.org/2000/svg" width="100" height="100" viewBox="0 0 100 100">
  <path d="M73.5,27c-4.7-4.7-11.2-7.6-18.3-7.6c-14.3,0-26,11.6-26,26c0,1.4,0.1,2.8,0.3,4.1H15.1v7.6h16.5 c2.2,6.4,7.3,11.5,13.6,13.8v13.5h7.6V70.9c6.3-2.2,11.4-7.4,13.6-13.8h16.5v-7.6H73.5c0.2-1.4,0.3-2.7,0.3-4.1 C73.9,38.2,73.8,27,73.5,27z M54.9,62.4c-9.4,0-17-7.6-17-17c0-9.4,7.6-17,17-17s17,7.6,17,17C71.9,54.8,64.3,62.4,54.9,62.4z" fill="#005571"/>
  <path d="M54.9,31.4c-7.7,0-14,6.3-14,14c0,7.7,6.3,14,14,14s14-6.3,14-14C68.9,37.7,62.6,31.4,54.9,31.4z M54.9,54.4 c-5,0-9-4-9-9c0-5,4-9,9-9s9,4,9,9C63.9,50.4,59.9,54.4,54.9,54.4z" fill="#005571"/>
</svg> 