<svg xmlns="http://www.w3.org/2000/svg" width="100" height="100" viewBox="0 0 100 100">
  <rect width="100" height="100" rx="5" ry="5" fill="#F7DF1E"/>
  <path d="M66.7,78.3c1.9,3,4.3,5.3,8.6,5.3c3.6,0,5.9-1.8,5.9-4.3c0-3-2.4-4-6.3-5.8l-2.2-0.9c-6.3-2.7-10.4-6-10.4-13.1 c0-6.5,5-11.5,12.7-11.5c5.5,0,9.5,1.9,12.3,6.9l-6.8,4.3c-1.5-2.7-3.1-3.7-5.6-3.7c-2.5,0-4.1,1.6-4.1,3.7c0,2.6,1.6,3.6,5.3,5.2 l2.2,0.9c7.4,3.2,11.5,6.4,11.5,13.7c0,7.8-6.1,12.1-14.4,12.1c-8.1,0-13.3-3.8-15.8-8.9L66.7,78.3z M36.7,78.8 c1.4,2.4,2.6,4.5,5.6,4.5c2.9,0,4.7-1.1,4.7-5.5V48.7h8.6v29.2c0,9-5.3,13-13,13c-7,0-11-3.6-13.1-7.9L36.7,78.8z" fill="#000000"/>
</svg> 