<svg xmlns="http://www.w3.org/2000/svg" width="100" height="100" viewBox="0 0 100 100">
  <circle cx="50" cy="50" r="45" fill="white"/>
  <path d="M76.7,75.2L45.7,34.5h-6.4v31h5.1V42.1l27.6,36.2c1.8-0.9,3.5-2,5.1-3.1C77.7,75.9,76.7,75.2,76.7,75.2z" fill="black"/>
  <path d="M52.5,34.5h-5.1v31h5.1V34.5z" fill="black"/>
  <path d="M50,5C25.1,5,5,25.1,5,50s20.1,45,45,45s45-20.1,45-45S74.9,5,50,5z M50,91.5c-22.9,0-41.5-18.6-41.5-41.5 S27.1,8.5,50,8.5s41.5,18.6,41.5,41.5S72.9,91.5,50,91.5z" fill="black"/>
</svg> 