<svg xmlns="http://www.w3.org/2000/svg" width="100" height="100" viewBox="0 0 100 100">
  <path d="M50,5C25.1,5,5,25.1,5,50s20.1,45,45,45s45-20.1,45-45S74.9,5,50,5z M25.5,65.5c-2.8,0-5-2.2-5-5s2.2-5,5-5s5,2.2,5,5 S28.3,65.5,25.5,65.5z M42.9,77.2c-2.2,2.2-5.8,2.2-8,0c-2.2-2.2-2.2-5.8,0-8c2.2-2.2,5.8-2.2,8,0C45.1,71.4,45.1,75,42.9,77.2z M50,50c-5.5,0-10-4.5-10-10s4.5-10,10-10s10,4.5,10,10S55.5,50,50,50z M65.1,77.2c-2.2,2.2-5.8,2.2-8,0c-2.2-2.2-2.2-5.8,0-8 c2.2-2.2,5.8-2.2,8,0C67.3,71.4,67.3,75,65.1,77.2z M74.5,65.5c-2.8,0-5-2.2-5-5s2.2-5,5-5s5,2.2,5,5S77.3,65.5,74.5,65.5z" fill="#0073A1"/>
</svg> 