<svg xmlns="http://www.w3.org/2000/svg" width="100" height="100" viewBox="0 0 100 100">
  <circle cx="50" cy="50" r="45" fill="#4479A1"/>
  <ellipse cx="50" cy="25" rx="30" ry="10" fill="white" opacity="0.3"/>
  <path d="M50,15c-16.5,0-30,4.5-30,10v50c0,5.5,13.5,10,30,10s30-4.5,30-10V25C80,19.5,66.5,15,50,15z M50,22 c13.8,0,23,3.2,23,6c0,2.8-9.2,6-23,6s-23-3.2-23-6C27,25.2,36.2,22,50,22z M73,75c0,2.8-9.2,6-23,6s-23-3.2-23-6V67 c5.5,3.1,14.9,4,23,4s17.5-0.9,23-4V75z M73,60c0,2.8-9.2,6-23,6s-23-3.2-23-6V52c5.5,3.1,14.9,4,23,4s17.5-0.9,23-4V60z M73,45 c0,2.8-9.2,6-23,6s-23-3.2-23-6V37c5.5,3.1,14.9,4,23,4s17.5-0.9,23-4V45z" fill="white"/>
</svg> 